<svg width="65" height="24" viewBox="0 0 65 24" fill="none" xmlns="http://www.w3.org/2000/svg">
<path d="M7.09 17.7C7.57 17.7 7.96333 17.6433 8.27 17.53C8.58333 17.41 8.83333 17.2533 9.02 17.06C9.20667 16.8667 9.33667 16.6467 9.41 16.4C9.48333 16.1467 9.52 15.8867 9.52 15.62C9.52 15.3267 9.47667 15.0633 9.39 14.83C9.30333 14.5967 9.16333 14.4 8.97 14.24C8.77667 14.0733 8.52333 13.9467 8.21 13.86C7.90333 13.7733 7.52333 13.73 7.07 13.73H4.52V17.7H7.09ZM4.52 7.77V11.69H6.49C6.91 11.69 7.28333 11.6567 7.61 11.59C7.93667 11.5167 8.21 11.4033 8.43 11.25C8.65 11.0967 8.81667 10.8967 8.93 10.65C9.05 10.3967 9.11 10.0933 9.11 9.74C9.11 9.38 9.06 9.07333 8.96 8.82C8.86667 8.56667 8.72 8.36333 8.52 8.21C8.32 8.05667 8.06667 7.94667 7.76 7.88C7.45333 7.80667 7.09 7.77 6.67 7.77H4.52ZM6.67 5.49C7.64333 5.49 8.47333 5.58333 9.16 5.77C9.85333 5.95 10.4167 6.21 10.85 6.55C11.29 6.88333 11.61 7.29 11.81 7.77C12.01 8.25 12.11 8.78667 12.11 9.38C12.11 9.71333 12.06 10.0333 11.96 10.34C11.8667 10.6467 11.7167 10.9367 11.51 11.21C11.31 11.4767 11.05 11.72 10.73 11.94C10.41 12.16 10.03 12.3467 9.59 12.5C10.5767 12.7333 11.3067 13.1133 11.78 13.64C12.2533 14.1667 12.49 14.85 12.49 15.69C12.49 16.3033 12.37 16.8733 12.13 17.4C11.8967 17.9267 11.5533 18.3833 11.1 18.77C10.6467 19.1567 10.0867 19.46 9.42 19.68C8.76 19.8933 8 20 7.14 20H1.52V5.49H6.67ZM19.2159 9.69V20H16.4559V9.69H19.2159ZM19.5459 6.76C19.5459 6.99333 19.4993 7.21 19.4059 7.41C19.3126 7.61 19.1859 7.78667 19.0259 7.94C18.8726 8.09333 18.6893 8.21333 18.4759 8.3C18.2693 8.38667 18.0459 8.43 17.8059 8.43C17.5793 8.43 17.3626 8.38667 17.1559 8.3C16.9559 8.21333 16.7793 8.09333 16.6259 7.94C16.4726 7.78667 16.3493 7.61 16.2559 7.41C16.1693 7.21 16.1259 6.99333 16.1259 6.76C16.1259 6.52667 16.1693 6.31 16.2559 6.11C16.3493 5.90333 16.4726 5.72333 16.6259 5.57C16.7793 5.41667 16.9559 5.29667 17.1559 5.21C17.3626 5.12333 17.5793 5.08 17.8059 5.08C18.0459 5.08 18.2693 5.12333 18.4759 5.21C18.6893 5.29667 18.8726 5.41667 19.0259 5.57C19.1859 5.72333 19.3126 5.90333 19.4059 6.11C19.4993 6.31 19.5459 6.52667 19.5459 6.76ZM26.2812 10.89C26.4879 10.69 26.7012 10.5067 26.9212 10.34C27.1479 10.1733 27.3846 10.03 27.6312 9.91C27.8846 9.79 28.1546 9.69667 28.4412 9.63C28.7346 9.56333 29.0512 9.53 29.3912 9.53C29.9512 9.53 30.4479 9.62667 30.8812 9.82C31.3146 10.0133 31.6779 10.2833 31.9712 10.63C32.2712 10.9767 32.4946 11.39 32.6412 11.87C32.7946 12.35 32.8712 12.8767 32.8712 13.45V20H30.1212V13.45C30.1212 12.8767 29.9879 12.4333 29.7212 12.12C29.4546 11.8 29.0612 11.64 28.5412 11.64C28.1546 11.64 27.7912 11.7233 27.4512 11.89C27.1112 12.0567 26.7879 12.29 26.4812 12.59V20H23.7212V9.69H25.4212C25.7679 9.69 25.9979 9.85 26.1112 10.17L26.2812 10.89Z" fill="#151F32"/>
<path d="M44.6589 12.61H49.6389V18.6C48.8989 19.14 48.1089 19.5367 47.2689 19.79C46.4356 20.0367 45.5522 20.16 44.6189 20.16C43.4256 20.16 42.3456 19.9767 41.3789 19.61C40.4122 19.2367 39.5856 18.72 38.8989 18.06C38.2122 17.4 37.6822 16.6167 37.3089 15.71C36.9356 14.8033 36.7489 13.8133 36.7489 12.74C36.7489 11.6533 36.9256 10.6567 37.2789 9.75C37.6389 8.84333 38.1489 8.06333 38.8089 7.41C39.4689 6.75667 40.2656 6.24667 41.1989 5.88C42.1389 5.51333 43.1889 5.33 44.3489 5.33C44.9489 5.33 45.5089 5.38 46.0289 5.48C46.5489 5.57333 47.0289 5.70667 47.4689 5.88C47.9089 6.04667 48.3122 6.24667 48.6789 6.48C49.0456 6.71333 49.3789 6.97 49.6789 7.25L48.8089 8.59C48.6756 8.80333 48.5022 8.93333 48.2889 8.98C48.0756 9.02667 47.8422 8.97333 47.5889 8.82C47.3489 8.67333 47.1122 8.54333 46.8789 8.43C46.6522 8.31 46.4089 8.20667 46.1489 8.12C45.8889 8.03333 45.6056 7.96667 45.2989 7.92C44.9922 7.87333 44.6389 7.85 44.2389 7.85C43.5656 7.85 42.9556 7.96667 42.4089 8.2C41.8622 8.43333 41.3956 8.76333 41.0089 9.19C40.6289 9.61667 40.3356 10.13 40.1289 10.73C39.9222 11.33 39.8189 12 39.8189 12.74C39.8189 13.54 39.9322 14.2567 40.1589 14.89C40.3856 15.5167 40.7056 16.0467 41.1189 16.48C41.5322 16.9133 42.0256 17.2433 42.5989 17.47C43.1789 17.6967 43.8222 17.81 44.5289 17.81C45.0089 17.81 45.4356 17.7633 45.8089 17.67C46.1889 17.57 46.5589 17.4367 46.9189 17.27V14.83H45.2789C45.0856 14.83 44.9322 14.78 44.8189 14.68C44.7122 14.5733 44.6589 14.44 44.6589 14.28V12.61ZM58.3939 9.53C59.1672 9.53 59.8706 9.65333 60.5039 9.9C61.1372 10.1467 61.6806 10.5 62.1339 10.96C62.5872 11.4133 62.9372 11.9667 63.1839 12.62C63.4306 13.2733 63.5539 14.01 63.5539 14.83C63.5539 15.65 63.4306 16.39 63.1839 17.05C62.9372 17.7033 62.5872 18.26 62.1339 18.72C61.6806 19.18 61.1372 19.5333 60.5039 19.78C59.8706 20.0267 59.1672 20.15 58.3939 20.15C57.6139 20.15 56.9039 20.0267 56.2639 19.78C55.6306 19.5333 55.0872 19.18 54.6339 18.72C54.1806 18.26 53.8272 17.7033 53.5739 17.05C53.3272 16.39 53.2039 15.65 53.2039 14.83C53.2039 14.01 53.3272 13.2733 53.5739 12.62C53.8272 11.9667 54.1806 11.4133 54.6339 10.96C55.0872 10.5 55.6306 10.1467 56.2639 9.9C56.9039 9.65333 57.6139 9.53 58.3939 9.53ZM58.3939 18.08C59.1806 18.08 59.7639 17.81 60.1439 17.27C60.5239 16.7233 60.7139 15.9133 60.7139 14.84C60.7139 13.7733 60.5239 12.97 60.1439 12.43C59.7639 11.8833 59.1806 11.61 58.3939 11.61C57.5872 11.61 56.9939 11.8833 56.6139 12.43C56.2339 12.97 56.0439 13.7733 56.0439 14.84C56.0439 15.9133 56.2339 16.7233 56.6139 17.27C56.9939 17.81 57.5872 18.08 58.3939 18.08Z" fill="#E75A31"/>
</svg>
