<svg width="573" height="500" viewBox="0 0 573 500" fill="none" xmlns="http://www.w3.org/2000/svg">
<g filter="url(#filter0_d)">
<rect x="-0.5" y="0.5" width="564" height="491" transform="matrix(-1 0 0 1 568 0)" fill="#032F48" stroke="black"/>
<mask id="path-2-inside-1" fill="white">
<path fill-rule="evenodd" clip-rule="evenodd" d="M162.38 492H569V72.3015L162.38 492Z"/>
</mask>
<path fill-rule="evenodd" clip-rule="evenodd" d="M162.38 492H569V72.3015L162.38 492Z" fill="#F1552C"/>
<path d="M162.38 492V493H160.019L161.661 491.304L162.38 492ZM569 492H570V493H569V492ZM569 72.3015L568.282 71.6057L570 69.8322V72.3015H569ZM162.38 491H569V493H162.38V491ZM568 492V72.3015H570V492H568ZM569.718 72.9973L163.098 492.696L161.661 491.304L568.282 71.6057L569.718 72.9973Z" fill="black" mask="url(#path-2-inside-1)"/>
<rect x="-0.5" y="0.5" width="206" height="206" transform="matrix(-1 0 0 1 568 285)" fill="#78C9C0" stroke="black"/>
<mask id="path-5-inside-2" fill="white">
<path fill-rule="evenodd" clip-rule="evenodd" d="M4.00004 336.638V492H162.379L4.00004 336.638Z"/>
</mask>
<path fill-rule="evenodd" clip-rule="evenodd" d="M4.00004 336.638V492H162.379L4.00004 336.638Z" fill="#F9BA51"/>
<path d="M4.00004 336.638H3.00004V334.256L4.70031 335.924L4.00004 336.638ZM4.00004 492V493H3.00004V492H4.00004ZM162.379 492L163.079 491.286L164.826 493H162.379V492ZM5.00004 336.638V492H3.00004V336.638H5.00004ZM4.00004 491H162.379V493H4.00004V491ZM161.679 492.714L3.29976 337.352L4.70031 335.924L163.079 491.286L161.679 492.714Z" fill="black" mask="url(#path-5-inside-2)"/>
</g>
<defs>
<filter id="filter0_d" x="0" y="0" width="573" height="500" filterUnits="userSpaceOnUse" color-interpolation-filters="sRGB">
<feFlood flood-opacity="0" result="BackgroundImageFix"/>
<feColorMatrix in="SourceAlpha" type="matrix" values="0 0 0 0 0 0 0 0 0 0 0 0 0 0 0 0 0 0 127 0"/>
<feOffset dy="4"/>
<feGaussianBlur stdDeviation="2"/>
<feColorMatrix type="matrix" values="0 0 0 0 0 0 0 0 0 0 0 0 0 0 0 0 0 0 0.25 0"/>
<feBlend mode="normal" in2="BackgroundImageFix" result="effect1_dropShadow"/>
<feBlend mode="normal" in="SourceGraphic" in2="effect1_dropShadow" result="shape"/>
</filter>
</defs>
</svg>
